<?xml version="1.0" encoding="iso-8859-1"?>
<!-- Generator: Adobe Illustrator 21.0.0, SVG Export Plug-In . SVG Version: 6.00 Build 0)  -->
<svg version="1.1" id="Capa_1" xmlns="http://www.w3.org/2000/svg" xmlns:xlink="http://www.w3.org/1999/xlink" x="0px" y="0px"
	 viewBox="0 0 512 512" style="enable-background:new 0 0 512 512;" xml:space="preserve">
<g>
	<g>
		<path d="M256,19.997L0,225.665l56.625,70.484l30.303-24.346v220.2H425.07V271.804l30.303,24.346L512,225.666L256,19.997z
			 M301.999,462.004h-91.998V353.038c0-25.365,20.636-45.999,45.999-45.999s45.999,20.635,45.999,45.999V462.004z M395.072,462.004
			L395.072,462.004h-63.074V353.038c0-41.906-34.093-75.999-75.999-75.999c-41.906,0-75.999,34.092-75.999,75.999v108.966h-63.073
			V247.703l139.072-111.729l139.071,111.729V462.004z M450.776,253.973L256,97.493L61.224,253.974l-19.048-23.71L256,58.478
			l213.825,171.785L450.776,253.973z"/>
	</g>
</g>
<g>
</g>
<g>
</g>
<g>
</g>
<g>
</g>
<g>
</g>
<g>
</g>
<g>
</g>
<g>
</g>
<g>
</g>
<g>
</g>
<g>
</g>
<g>
</g>
<g>
</g>
<g>
</g>
<g>
</g>
</svg>
