<svg width="20" height="20" viewBox="0 0 20 20" fill="none" xmlns="http://www.w3.org/2000/svg">
<circle cx="10" cy="10" r="9.5" stroke="black"/>
<path d="M14.6875 12.3906C14.5469 13.5938 14.1016 14.5234 13.3516 15.1797C12.6068 15.8307 11.6146 16.1562 10.375 16.1562C9.03125 16.1562 7.95312 15.6745 7.14062 14.7109C6.33333 13.7474 5.92969 12.4583 5.92969 10.8438V9.75C5.92969 8.69271 6.11719 7.76302 6.49219 6.96094C6.8724 6.15885 7.40885 5.54427 8.10156 5.11719C8.79427 4.6849 9.59635 4.46875 10.5078 4.46875C11.7161 4.46875 12.6849 4.80729 13.4141 5.48438C14.1432 6.15625 14.5677 7.08854 14.6875 8.28125H13.1797C13.0495 7.375 12.7656 6.71875 12.3281 6.3125C11.8958 5.90625 11.2891 5.70312 10.5078 5.70312C9.54948 5.70312 8.79688 6.05729 8.25 6.76562C7.70833 7.47396 7.4375 8.48177 7.4375 9.78906V10.8906C7.4375 12.125 7.69531 13.1068 8.21094 13.8359C8.72656 14.5651 9.44792 14.9297 10.375 14.9297C11.2083 14.9297 11.8464 14.7422 12.2891 14.3672C12.737 13.987 13.0339 13.3281 13.1797 12.3906H14.6875Z" fill="black"/>
</svg>
