<svg id="Capa_1" enable-background="new 0 0 518.452 518.452" height="512" viewBox="0 0 518.452 518.452" width="512" xmlns="http://www.w3.org/2000/svg"><g><g><path d="m334.274 515.226h-150.096v-15c0-23.171-11.98-43.922-32.047-55.507-20.066-11.585-44.026-11.584-64.093 0l-12.99 7.5-75.048-129.986 12.99-7.5c20.066-11.586 32.047-32.336 32.047-55.507s-11.98-43.921-32.047-55.507l-12.99-7.5 75.048-129.986 12.99 7.5c20.067 11.587 44.027 11.586 64.093 0s32.047-32.336 32.047-55.507v-15h150.096v15c0 23.171 11.98 43.921 32.047 55.507s44.026 11.585 64.093 0l12.99-7.5 75.048 129.986-12.99 7.5c-20.066 11.586-32.046 32.336-32.046 55.507s11.98 43.921 32.046 55.507l12.99 7.5-75.048 129.986-12.99-7.5c-20.066-11.585-44.027-11.585-64.093 0-20.067 11.585-32.047 32.336-32.047 55.507zm-121.258-30h92.421c4.368-27.833 20.834-52.025 45.884-66.488 25.05-14.462 54.233-16.628 80.522-6.492l46.21-80.039c-21.919-17.698-34.637-44.055-34.637-72.98s12.718-55.282 34.637-72.98l-46.21-80.039c-26.287 10.136-55.471 7.971-80.521-6.493-25.051-14.463-41.517-38.654-45.885-66.487h-92.421c-4.368 27.833-20.834 52.024-45.885 66.487-25.049 14.462-54.233 16.63-80.521 6.493l-46.21 80.039c21.92 17.698 34.638 44.055 34.638 72.98s-12.718 55.282-34.638 72.98l46.21 80.039c26.287-10.136 55.472-7.97 80.521 6.492 25.051 14.463 41.517 38.655 45.885 66.488z"/></g><g><path d="m259.226 409.253c-82.726 0-150.027-67.302-150.027-150.027s67.301-150.027 150.027-150.027 150.027 67.301 150.027 150.027-67.301 150.027-150.027 150.027zm0-270.054c-66.183 0-120.027 53.844-120.027 120.027s53.844 120.027 120.027 120.027 120.027-53.844 120.027-120.027-53.844-120.027-120.027-120.027z"/></g><g><path d="m259.226 349.253c-49.641 0-90.027-40.386-90.027-90.027s40.386-90.027 90.027-90.027 90.027 40.386 90.027 90.027-40.386 90.027-90.027 90.027zm0-150.054c-33.099 0-60.027 26.928-60.027 60.027s26.928 60.027 60.027 60.027 60.027-26.928 60.027-60.027-26.928-60.027-60.027-60.027z"/></g></g></svg>