<svg width="81" height="81" viewBox="0 0 81 81" fill="none" xmlns="http://www.w3.org/2000/svg">
<rect x="0.5" y="0.5" width="80" height="80" rx="7.5" fill="#2D6A4F" stroke="black"/>
<path d="M29.512 39.3C30.52 39.3 31.288 39.072 31.816 38.616C32.368 38.136 32.644 37.416 32.644 36.456C32.644 35.544 32.356 34.848 31.78 34.368C31.228 33.864 30.412 33.612 29.332 33.612C28.948 33.612 28.624 33.624 28.36 33.648C28.12 33.648 27.868 33.672 27.604 33.72V39.3H29.512ZM27.64 50.856C27.376 50.928 26.956 51 26.38 51.072C25.828 51.144 25.276 51.18 24.724 51.18C24.172 51.18 23.68 51.132 23.248 51.036C22.84 50.964 22.492 50.82 22.204 50.604C21.916 50.388 21.7 50.088 21.556 49.704C21.412 49.32 21.34 48.816 21.34 48.192V31.236C21.34 30.732 21.472 30.348 21.736 30.084C22.024 29.796 22.408 29.568 22.888 29.4C23.704 29.112 24.628 28.908 25.66 28.788C26.716 28.644 27.772 28.572 28.828 28.572C32.14 28.572 34.672 29.28 36.424 30.696C38.176 32.112 39.052 34.032 39.052 36.456C39.052 37.632 38.86 38.7 38.476 39.66C38.116 40.596 37.564 41.412 36.82 42.108C36.1 42.78 35.176 43.308 34.048 43.692C32.944 44.052 31.66 44.232 30.196 44.232H27.64V50.856ZM50.43 39.3C51.438 39.3 52.206 39.072 52.734 38.616C53.286 38.136 53.562 37.416 53.562 36.456C53.562 35.544 53.274 34.848 52.698 34.368C52.146 33.864 51.33 33.612 50.25 33.612C49.866 33.612 49.542 33.624 49.278 33.648C49.038 33.648 48.786 33.672 48.522 33.72V39.3H50.43ZM48.558 50.856C48.294 50.928 47.874 51 47.298 51.072C46.746 51.144 46.194 51.18 45.642 51.18C45.09 51.18 44.598 51.132 44.166 51.036C43.758 50.964 43.41 50.82 43.122 50.604C42.834 50.388 42.618 50.088 42.474 49.704C42.33 49.32 42.258 48.816 42.258 48.192V31.236C42.258 30.732 42.39 30.348 42.654 30.084C42.942 29.796 43.326 29.568 43.806 29.4C44.622 29.112 45.546 28.908 46.578 28.788C47.634 28.644 48.69 28.572 49.746 28.572C53.058 28.572 55.59 29.28 57.342 30.696C59.094 32.112 59.97 34.032 59.97 36.456C59.97 37.632 59.778 38.7 59.394 39.66C59.034 40.596 58.482 41.412 57.738 42.108C57.018 42.78 56.094 43.308 54.966 43.692C53.862 44.052 52.578 44.232 51.114 44.232H48.558V50.856Z" fill="white"/>
<path d="M31.816 38.616L32.4696 39.3728L32.4722 39.3706L31.816 38.616ZM31.78 34.368L31.1057 35.1065L31.1224 35.1217L31.1398 35.1362L31.78 34.368ZM28.36 33.648V34.648H28.4054L28.4505 34.6439L28.36 33.648ZM27.604 33.72L27.4251 32.7361L26.604 32.8854V33.72H27.604ZM27.604 39.3H26.604V40.3H27.604V39.3ZM27.64 50.856L27.9031 51.8208L28.64 51.6198V50.856H27.64ZM26.38 51.072L26.256 50.0797L26.2507 50.0804L26.38 51.072ZM23.248 51.036L23.4649 50.0598L23.4435 50.055L23.4218 50.0512L23.248 51.036ZM22.204 50.604L21.604 51.404L21.604 51.404L22.204 50.604ZM21.556 49.704L20.6197 50.0551L20.6197 50.0551L21.556 49.704ZM21.736 30.084L22.4431 30.7911L22.4431 30.7911L21.736 30.084ZM22.888 29.4L23.2184 30.3439L23.2208 30.343L22.888 29.4ZM25.66 28.788L25.7755 29.7813L25.7853 29.7802L25.7951 29.7788L25.66 28.788ZM38.476 39.66L37.5474 39.2886L37.5427 39.301L38.476 39.66ZM36.82 42.108L37.5023 42.8391L37.5032 42.8383L36.82 42.108ZM34.048 43.692L34.358 44.6428L34.3703 44.6386L34.048 43.692ZM27.64 44.232V43.232H26.64V44.232H27.64ZM29.512 40.3C30.6552 40.3 31.6939 40.0428 32.4696 39.3728L31.1624 37.8592C30.8821 38.1012 30.3848 38.3 29.512 38.3V40.3ZM32.4722 39.3706C33.3059 38.6456 33.644 37.6094 33.644 36.456H31.644C31.644 37.2226 31.4301 37.6264 31.1598 37.8614L32.4722 39.3706ZM33.644 36.456C33.644 35.3177 33.2733 34.3107 32.4202 33.5998L31.1398 35.1362C31.4387 35.3853 31.644 35.7703 31.644 36.456H33.644ZM32.4543 33.6295C31.6504 32.8956 30.5517 32.612 29.332 32.612V34.612C30.2723 34.612 30.8056 34.8324 31.1057 35.1065L32.4543 33.6295ZM29.332 32.612C28.9299 32.612 28.5736 32.6245 28.2695 32.6521L28.4505 34.6439C28.6744 34.6235 28.9661 34.612 29.332 34.612V32.612ZM28.36 32.648C28.0535 32.648 27.7413 32.6786 27.4251 32.7361L27.7829 34.7039C27.9947 34.6654 28.1865 34.648 28.36 34.648V32.648ZM26.604 33.72V39.3H28.604V33.72H26.604ZM27.604 40.3H29.512V38.3H27.604V40.3ZM27.3769 49.8912C27.1855 49.9434 26.8249 50.0086 26.256 50.0797L26.504 52.0643C27.0871 51.9914 27.5665 51.9126 27.9031 51.8208L27.3769 49.8912ZM26.2507 50.0804C25.7412 50.1469 25.2324 50.18 24.724 50.18V52.18C25.3196 52.18 25.9148 52.1411 26.5093 52.0636L26.2507 50.0804ZM24.724 50.18C24.2279 50.18 23.8108 50.1367 23.4649 50.0598L23.0311 52.0122C23.5492 52.1273 24.1161 52.18 24.724 52.18V50.18ZM23.4218 50.0512C23.145 50.0024 22.9487 49.9125 22.804 49.804L21.604 51.404C22.0353 51.7275 22.535 51.9256 23.0742 52.0208L23.4218 50.0512ZM22.804 49.804C22.6891 49.7178 22.5789 49.5838 22.4923 49.3529L20.6197 50.0551C20.8211 50.5922 21.1429 51.0582 21.604 51.404L22.804 49.804ZM22.4923 49.3529C22.4064 49.1238 22.34 48.7521 22.34 48.192H20.34C20.34 48.8799 20.4176 49.5162 20.6197 50.0551L22.4923 49.3529ZM22.34 48.192V31.236H20.34V48.192H22.34ZM22.34 31.236C22.34 30.9018 22.4248 30.8094 22.4431 30.7911L21.0289 29.3769C20.5192 29.8866 20.34 30.5622 20.34 31.236H22.34ZM22.4431 30.7911C22.6019 30.6324 22.8458 30.4743 23.2183 30.3439L22.5577 28.4561C21.9702 28.6617 21.4461 28.9596 21.0289 29.3769L22.4431 30.7911ZM23.2208 30.343C23.9541 30.0842 24.8033 29.8943 25.7755 29.7813L25.5445 27.7947C24.4527 27.9216 23.4539 28.1398 22.5552 28.457L23.2208 30.343ZM25.7951 29.7788C26.8067 29.6409 27.8176 29.572 28.828 29.572V27.572C27.7264 27.572 26.6253 27.6471 25.5249 27.7972L25.7951 29.7788ZM28.828 29.572C32.0152 29.572 34.2882 30.2556 35.7954 31.4737L37.0526 29.9183C35.0558 28.3044 32.2648 27.572 28.828 27.572V29.572ZM35.7954 31.4737C37.2928 32.6839 38.052 34.3077 38.052 36.456H40.052C40.052 33.7563 39.0592 31.5401 37.0526 29.9183L35.7954 31.4737ZM38.052 36.456C38.052 37.5221 37.8782 38.4618 37.5475 39.2886L39.4045 40.0314C39.8418 38.9382 40.052 37.7419 40.052 36.456H38.052ZM37.5427 39.301C37.2378 40.0936 36.7723 40.7833 36.1368 41.3777L37.5032 42.8383C38.3557 42.0407 38.9942 41.0984 39.4093 40.019L37.5427 39.301ZM36.1377 41.3769C35.5405 41.9344 34.7474 42.3976 33.7257 42.7453L34.3703 44.6386C35.6046 44.2184 36.6596 43.6256 37.5023 42.8391L36.1377 41.3769ZM33.738 42.7413C32.7562 43.0614 31.5809 43.232 30.196 43.232V45.232C31.7391 45.232 33.1318 45.0426 34.358 44.6427L33.738 42.7413ZM30.196 43.232H27.64V45.232H30.196V43.232ZM26.64 44.232V50.856H28.64V44.232H26.64ZM52.734 38.616L53.3876 39.3728L53.3901 39.3706L52.734 38.616ZM52.698 34.368L52.0237 35.1065L52.0404 35.1217L52.0578 35.1362L52.698 34.368ZM49.278 33.648V34.648H49.3233L49.3685 34.6439L49.278 33.648ZM48.522 33.72L48.3431 32.7361L47.522 32.8854V33.72H48.522ZM48.522 39.3H47.522V40.3H48.522V39.3ZM48.558 50.856L48.8211 51.8208L49.558 51.6198V50.856H48.558ZM47.298 51.072L47.1739 50.0797L47.1686 50.0804L47.298 51.072ZM44.166 51.036L44.3829 50.0598L44.3614 50.055L44.3398 50.0512L44.166 51.036ZM43.122 50.604L42.522 51.404L42.522 51.404L43.122 50.604ZM42.474 49.704L41.5376 50.0551L41.5376 50.0551L42.474 49.704ZM42.654 30.084L43.3611 30.7911L43.3611 30.7911L42.654 30.084ZM43.806 29.4L44.1363 30.3439L44.1388 30.343L43.806 29.4ZM46.578 28.788L46.6935 29.7813L46.7033 29.7802L46.7131 29.7788L46.578 28.788ZM59.394 39.66L58.4654 39.2886L58.4606 39.301L59.394 39.66ZM57.738 42.108L58.4203 42.8391L58.4211 42.8383L57.738 42.108ZM54.966 43.692L55.276 44.6428L55.2882 44.6386L54.966 43.692ZM48.558 44.232V43.232H47.558V44.232H48.558ZM50.43 40.3C51.5731 40.3 52.6118 40.0428 53.3876 39.3728L52.0803 37.8592C51.8001 38.1012 51.3028 38.3 50.43 38.3V40.3ZM53.3901 39.3706C54.2239 38.6456 54.562 37.6094 54.562 36.456H52.562C52.562 37.2226 52.348 37.6264 52.0778 37.8614L53.3901 39.3706ZM54.562 36.456C54.562 35.3177 54.1913 34.3107 53.3382 33.5998L52.0578 35.1362C52.3567 35.3853 52.562 35.7703 52.562 36.456H54.562ZM53.3722 33.6295C52.5684 32.8956 51.4697 32.612 50.25 32.612V34.612C51.1903 34.612 51.7236 34.8324 52.0237 35.1065L53.3722 33.6295ZM50.25 32.612C49.8479 32.612 49.4916 32.6245 49.1874 32.6521L49.3685 34.6439C49.5924 34.6235 49.8841 34.612 50.25 34.612V32.612ZM49.278 32.648C48.9714 32.648 48.6593 32.6786 48.3431 32.7361L48.7009 34.7039C48.9126 34.6654 49.1045 34.648 49.278 34.648V32.648ZM47.522 33.72V39.3H49.522V33.72H47.522ZM48.522 40.3H50.43V38.3H48.522V40.3ZM48.2949 49.8912C48.1035 49.9434 47.7429 50.0086 47.1739 50.0797L47.422 52.0643C48.005 51.9914 48.4844 51.9126 48.8211 51.8208L48.2949 49.8912ZM47.1686 50.0804C46.6592 50.1469 46.1504 50.18 45.642 50.18V52.18C46.2376 52.18 46.8328 52.1411 47.4273 52.0636L47.1686 50.0804ZM45.642 50.18C45.1458 50.18 44.7287 50.1367 44.3829 50.0598L43.949 52.0122C44.4672 52.1273 45.0341 52.18 45.642 52.18V50.18ZM44.3398 50.0512C44.063 50.0024 43.8667 49.9125 43.722 49.804L42.522 51.404C42.9533 51.7275 43.453 51.9256 43.9922 52.0208L44.3398 50.0512ZM43.722 49.804C43.607 49.7178 43.4969 49.5838 43.4103 49.3529L41.5376 50.0551C41.7391 50.5922 42.0609 51.0582 42.522 51.404L43.722 49.804ZM43.4103 49.3529C43.3244 49.1238 43.258 48.7521 43.258 48.192H41.258C41.258 48.8799 41.3355 49.5162 41.5376 50.0551L43.4103 49.3529ZM43.258 48.192V31.236H41.258V48.192H43.258ZM43.258 31.236C43.258 30.9018 43.3428 30.8094 43.3611 30.7911L41.9469 29.3769C41.4372 29.8866 41.258 30.5622 41.258 31.236H43.258ZM43.3611 30.7911C43.5198 30.6324 43.7637 30.4743 44.1363 30.3439L43.4756 28.4561C42.8882 28.6617 42.3641 28.9596 41.9469 29.3769L43.3611 30.7911ZM44.1388 30.343C44.8721 30.0842 45.7213 29.8943 46.6935 29.7813L46.4625 27.7947C45.3706 27.9216 44.3718 28.1398 43.4731 28.457L44.1388 30.343ZM46.7131 29.7788C47.7247 29.6409 48.7356 29.572 49.746 29.572V27.572C48.6444 27.572 47.5432 27.6471 46.4429 27.7972L46.7131 29.7788ZM49.746 29.572C52.9332 29.572 55.2062 30.2556 56.7134 31.4737L57.9706 29.9183C55.9738 28.3044 53.1827 27.572 49.746 27.572V29.572ZM56.7134 31.4737C58.2107 32.6839 58.97 34.3077 58.97 36.456H60.97C60.97 33.7563 59.9772 31.5401 57.9706 29.9183L56.7134 31.4737ZM58.97 36.456C58.97 37.5221 58.7962 38.4618 58.4655 39.2886L60.3224 40.0314C60.7597 38.9382 60.97 37.7419 60.97 36.456H58.97ZM58.4606 39.301C58.1558 40.0936 57.6902 40.7833 57.0548 41.3777L58.4211 42.8383C59.2737 42.0407 59.9122 41.0984 60.3273 40.019L58.4606 39.301ZM57.0557 41.3769C56.4584 41.9344 55.6653 42.3976 54.6437 42.7453L55.2882 44.6386C56.5226 44.2184 57.5775 43.6256 58.4203 42.8391L57.0557 41.3769ZM54.6559 42.7413C53.6742 43.0614 52.4988 43.232 51.114 43.232V45.232C52.6571 45.232 54.0497 45.0426 55.276 44.6427L54.6559 42.7413ZM51.114 43.232H48.558V45.232H51.114V43.232ZM47.558 44.232V50.856H49.558V44.232H47.558Z" fill="black"/>
</svg>
